<?xml version="1.0" encoding="UTF-8"?>
<svg width="748px" height="220px" viewBox="0 0 748 220" version="1.1" xmlns="http://www.w3.org/2000/svg" xmlns:xlink="http://www.w3.org/1999/xlink">
    <title>Wide</title>
    <g id="Wide" stroke="none" stroke-width="1" fill="none" fill-rule="evenodd">
        <g id="LoRaWAN_NoTagline_RGBcolor-01-01" transform="translate(127.000000, 37.000000)">
            <polyline id="Fill-1" fill="#0B0B09" points="0 109 0 34 19.1194901 34 19.1194901 93.205062 49 93.205062 49 109 0 109"></polyline>
            <path d="M125,109 L125,34 L162.868273,34 C181.151956,34 190.302878,42.2183382 190.302878,58.6484745 C190.302878,63.4954383 188.877329,67.7284588 186.050993,71.342631 C183.222181,74.9576207 179.422642,77.4747065 174.666408,78.8759033 L192,109 L170.84128,109 L155.954317,82.0379974 L143.928358,82.0379974 L143.928358,109 L125,109 M143.928358,47.9056931 L143.928358,68.1298519 L161.261951,68.1298519 C168.011643,68.1298519 171.376996,64.7568425 171.376996,58.0198162 C171.376996,51.27625 168.011643,47.9056931 161.261951,47.9056931 L143.928358,47.9056931" id="Fill-2" fill="#0B0B09"></path>
            <path d="M248.527847,69.2237327 L248.527847,98.8308389 C248.527847,104.096214 249.013118,107.99946 250,110.520135 L234.83895,110.520135 C234.28097,108.769643 233.931313,106.831102 233.795698,104.726587 L233.58329,104.726587 C232.253287,106.831102 229.829382,108.585682 226.316476,109.997686 C223.089504,111.33447 219.896027,112 216.744215,112 C211.202809,112 206.736516,110.561015 203.372296,107.680594 C199.78668,104.652185 198,100.547809 198,95.3494776 C198,88.957443 200.556252,84.1131343 205.68918,80.815734 C210.037831,78.0023558 217.061193,75.9297276 226.742109,74.6011197 L232.736925,73.7557163 L232.736925,69.1141737 C232.736925,65.1111804 230.147995,63.1137718 224.952978,63.1137718 C222.287254,63.1137718 220.288982,63.6746487 218.956529,64.7988554 C217.624892,65.9263324 216.744215,67.8526094 216.321849,70.5915856 L200.527659,70.5915856 C200.871597,58.8663147 208.565678,53 223.58948,53 C231.798244,53 237.869036,54.1242066 241.787152,56.3677143 C246.288574,58.9685153 248.527847,63.2552174 248.527847,69.2237327 M232.736925,87.132549 L232.736925,83.2391148 L221.681073,86.3934342 C216.425602,87.8708462 213.790922,90.2925917 213.790922,93.6660292 C213.790922,97.8742413 216.350442,99.9787561 221.482553,99.9787561 C224.844323,99.9787561 227.572953,98.874172 229.630045,96.6641861 C231.707562,94.4558355 232.736925,91.2786231 232.736925,87.132549" id="Fill-3" fill="#0B0B09"></path>
            <path d="M83.9995886,53 C92.9846546,53 100.229481,55.6011254 105.735714,60.792746 C111.253466,65.9925436 114,73.2243427 114,82.4987734 C114,91.7715687 111.253466,99.0033678 105.735714,104.202348 C100.229481,109.401328 92.9846546,112 83.9995886,112 C75.016991,112 67.7721644,109.401328 62.264286,104.202348 C56.7465339,99.0033678 54,91.7715687 54,82.4987734 C54,73.2243427 56.7465339,65.9925436 62.264286,60.792746 C67.7721644,55.6011254 75.016991,53 83.9995886,53 M83.9995886,65.539534 C79.4692064,65.539534 76.0537294,67.1651352 73.7194224,70.4147021 C71.601514,73.3829778 70.5326861,77.4118193 70.5326861,82.4987734 C70.5326861,87.5898161 71.601514,91.6178399 73.7194224,94.5852979 C76.0537294,97.8389533 79.4692064,99.460466 83.9995886,99.460466 C92.9846546,99.460466 97.4673139,93.5966904 97.4673139,81.8650507 C97.4673139,77.05857 96.3993088,73.2079886 94.2805776,70.3092179 C91.8862056,67.1291561 88.4534496,65.539534 83.9995886,65.539534" id="Fill-4" fill="#0B0B09"></path>
            <path d="M83.5248143,40.5319435 C91.7150195,40.5319435 99.3515229,42.9125757 105.773481,47 L109,42.471957 C101.665293,37.7550773 92.9148428,35 83.5248143,35 C74.5339091,35 66.1343279,37.5194351 59,41.8715535 L62.2085255,46.4084734 C68.4309222,42.6809684 75.7271895,40.5319435 83.5248143,40.5319435" id="Fill-5" fill="#38A2CF"></path>
            <path d="M49,27.1924232 L53.2772872,33.3642089 C62.0305579,27.7779769 72.390571,24.5257243 83.4987618,24.5257243 C95.0215167,24.5257243 105.743762,28.0201046 114.697365,34 L119,27.8413913 C108.8256,20.9984013 96.6184469,17 83.4987618,17 C70.8018176,17 58.9675264,20.7521558 49,27.1924232" id="Fill-6" fill="#38A2CF"></path>
            <path d="M83.4750528,9.50584408 C98.3304079,9.50584408 112.149683,14.113553 123.653827,22 L129,14.2250634 C115.980335,5.24681318 100.314806,0 83.4750528,0 C67.0797985,0 51.8075735,4.9863449 39,13.531036 L44.3128555,21.3284412 C55.6154721,13.8605742 69.0536324,9.50584408 83.4750528,9.50584408" id="Fill-7" fill="#38A2CF"></path>
            <path d="M84.4780091,123.469607 C76.2819313,123.469607 68.6476881,121.086068 62.2246193,117 L59,121.526627 C66.3373788,126.2461 75.0854774,129 84.4780091,129 C93.4624544,129 101.862167,126.481711 109,122.130984 L105.790101,117.593868 C99.5682134,121.321678 92.2700895,123.469607 84.4780091,123.469607" id="Fill-8" fill="#38A2CF"></path>
            <path d="M119,135.807744 L114.72006,129.636038 C105.971286,135.222788 95.6099715,138.472182 84.5028971,138.472182 C72.9804215,138.472182 62.254404,134.98139 53.3003832,129 L49,135.158525 C59.1716041,142.000872 71.3809635,146 84.5028971,146 C97.1987991,146 109.03119,142.247213 119,135.807744" id="Fill-9" fill="#38A2CF"></path>
            <path d="M84.5282072,154.495707 C69.6717712,154.495707 55.848996,149.886683 44.3430186,142 L39,149.780173 C52.0199003,158.753584 67.6848996,164 84.5282072,164 C100.923758,164 116.19382,159.014032 129,150.469988 L123.687861,142.676501 C112.385853,150.143803 98.9482628,154.495707 84.5282072,154.495707" id="Fill-10" fill="#38A2CF"></path>
            <path d="M260,34 L278.224142,34 L278.224142,76.2058213 L307.384243,34 C307.384243,34 317.102911,34 321.96798,34 C321.96798,47.9667991 321.96798,76.2058213 321.96798,76.2058213 L351.128081,34 L373,34 L321.96798,109 L303.741381,109 L303.741381,72.5628425 L278.224142,109 L260,109 L260,34" id="Fill-11" fill="#38A2CF"></path>
            <polyline id="Fill-12" fill="#38A2CF" points="420 34 438.825998 34 465.748377 75.2060288 465.748377 34 484 34 484 109 464.491006 109 438.084577 69.5888486 438.084577 109 420 109 420 34"></polyline>
            <path d="M374.481684,82.7147084 L388.364655,82.7147084 L388.364655,62.0834443 L374.481684,82.7147084 Z M406,34 L406,109 L388.364655,109 L388.364655,98.156222 L363.999352,98.156222 L356.633191,109 L336,109 L387.730885,34 L406,34 L406,34 Z" id="Fill-13" fill="#38A2CF"></path>
            <path d="M501.974238,44.5152647 L503.094661,44.5152647 C504.403769,44.5152647 505.463245,44.0914258 505.463245,43.0602468 C505.463245,42.1516726 504.7778,41.5443326 503.282511,41.5443326 C502.657178,41.5443326 502.221365,41.6060409 501.974238,41.6669373 L501.974238,44.5152647 Z M501.909951,50.1510231 L499.541367,50.1510231 L499.541367,40.2127314 C500.478114,40.0308542 501.786387,39.9074375 503.469526,39.9074375 C505.400628,39.9074375 506.273089,40.2127314 507.019481,40.6357584 C507.581362,41.0595973 508.017175,41.8471906 508.017175,42.8166613 C508.017175,43.9095486 507.146384,44.7564144 505.899058,45.1201689 L505.899058,45.2435856 C506.895917,45.6049042 507.457798,46.334037 507.769212,47.6648262 C508.080627,49.1815525 508.267642,49.7872686 508.515605,50.1510231 L505.962509,50.1510231 C505.648591,49.7872686 505.463245,48.8786944 505.151831,47.7265346 C504.96565,46.6360831 504.340317,46.1513478 503.031209,46.1513478 L501.909951,46.1513478 L501.909951,50.1510231 Z M495.616547,44.9382917 C495.616547,49.3634297 498.982825,52.8783696 503.59309,52.8783696 C508.080627,52.8783696 511.382618,49.3634297 511.382618,45 C511.382618,40.574862 508.080627,36.9982137 503.530474,36.9982137 C498.982825,36.9982137 495.616547,40.574862 495.616547,44.9382917 Z M514,44.9382917 C514,50.57405 509.452352,55 503.530474,55 C497.671212,55 493,50.57405 493,44.9382917 C493,39.425138 497.671212,35 503.530474,35 C509.452352,35 514,39.425138 514,44.9382917 L514,44.9382917 Z" id="Fill-14" fill="#0B0B09"></path>
        </g>
        <path d="M61.1738241,147 L63.5623722,134.4 L52.8139059,134.4 C50.1267894,134.4 48.0119291,133.9 46.4693252,132.9 C44.9267212,131.9 44.1554192,130.2 44.1554192,127.8 C44.1554192,125.9 44.5037491,123.6 45.200409,120.9 C45.8970688,118.2 46.6434901,115.375 47.4396728,112.425 C48.2358555,109.475 48.9822768,106.575 49.6789366,103.725 C50.3755965,100.875 50.7239264,98.3 50.7239264,96 C50.7239264,92.1 49.9526244,89.225 48.4100204,87.375 C46.8674165,85.525 44.603272,84.2 41.6175869,83.4 L41.6175869,83.4 L41.7668712,82.8 C45.9468303,81.9 49.2808453,80.075 51.7689162,77.325 C54.256987,74.575 56.0981595,70.2 57.2924335,64.2 C58.0886162,59.8 58.7603954,55.75 59.307771,52.05 C59.8551466,48.35 60.5269257,44.6 61.3231084,40.8 C62.1192911,36.9 63.5126108,34.225 65.5030675,32.775 C67.4935242,31.325 70.0811179,30.6 73.2658487,30.6 L73.2658487,30.6 L84.3128834,30.6 L87,18 L67.8916155,18 C64.2092706,18 60.9747785,18.375 58.1881391,19.125 C55.4014997,19.875 52.9880709,21.1 50.9478528,22.8 C48.9076346,24.5 47.1908657,26.75 45.797546,29.55 C44.4042263,32.35 43.2597137,35.8 42.3640082,39.9 C41.866394,42.5 41.4931834,44.8 41.2443763,46.8 C40.9955692,48.8 40.7965235,50.7 40.6472393,52.5 C40.497955,54.3 40.32379,56.125 40.1247444,57.975 C39.9256987,59.825 39.5773688,61.9 39.0797546,64.2 C38.7811861,65.5 38.2338105,66.825 37.4376278,68.175 C36.6414451,69.525 35.4222904,70.725 33.7801636,71.775 C32.1380368,72.825 29.9734151,73.7 27.2862986,74.4 C24.599182,75.1 21.1656442,75.5 16.9856851,75.6 L16.9856851,75.6 L14,89.4 C17.8813906,89.5 20.9914792,89.85 23.3302658,90.45 C25.6690525,91.05 27.4853442,91.825 28.7791411,92.775 C30.072938,93.725 30.9188821,94.825 31.3169734,96.075 C31.7150648,97.325 31.9141104,98.6 31.9141104,99.9 C31.9141104,101.4 31.5160191,103.4 30.7198364,105.9 C29.9236537,108.4 29.0777096,111.125 28.1820041,114.075 C27.2862986,117.025 26.4403545,120.05 25.6441718,123.15 C24.8479891,126.25 24.4498978,129.2 24.4498978,132 C24.4498978,136.8 25.9178596,140.5 28.8537832,143.1 C31.7897069,145.7 36.2931152,147 42.3640082,147 L42.3640082,147 L61.1738241,147 Z" id="{" fill="#000000" fill-rule="nonzero"></path>
        <path d="M679.108384,201 C682.790729,201 686.025222,200.625 688.811861,199.875 C691.5985,199.125 694.011929,197.9 696.052147,196.2 C698.092365,194.5 699.809134,192.25 701.202454,189.45 C702.595774,186.65 703.740286,183.2 704.635992,179.1 C705.133606,176.5 705.481936,174.2 705.680982,172.2 C705.880027,170.2 706.054192,168.3 706.203476,166.5 C706.352761,164.7 706.551806,162.875 706.800613,161.025 C707.049421,159.175 707.422631,157.1 707.920245,154.8 C708.218814,153.5 708.741309,152.175 709.48773,150.825 C710.234151,149.475 711.428425,148.275 713.070552,147.225 C714.712679,146.175 716.902181,145.3 719.639059,144.6 C722.375937,143.9 725.834356,143.5 730.014315,143.4 L730.014315,143.4 L733,129.6 C729.118609,129.5 726.008521,129.15 723.669734,128.55 C721.330948,127.95 719.514656,127.175 718.220859,126.225 C716.927062,125.275 716.081118,124.175 715.683027,122.925 C715.284935,121.675 715.08589,120.4 715.08589,119.1 C715.08589,117.6 715.483981,115.6 716.280164,113.1 C717.076346,110.6 717.92229,107.875 718.817996,104.925 C719.713701,101.975 720.559646,98.95 721.355828,95.85 C722.152011,92.75 722.550102,89.8 722.550102,87 C722.550102,82.2 721.08214,78.5 718.146217,75.9 C715.210293,73.3 710.706885,72 704.635992,72 L704.635992,72 L685.826176,72 L683.437628,84.6 L694.186094,84.6 C696.873211,84.6 698.988071,85.1 700.530675,86.1 C702.073279,87.1 702.844581,88.8 702.844581,91.2 C702.844581,93.1 702.496251,95.4 701.799591,98.1 C701.102931,100.8 700.35651,103.625 699.560327,106.575 C698.764145,109.525 698.017723,112.45 697.321063,115.35 C696.624404,118.25 696.276074,120.8 696.276074,123 C696.276074,126.9 697.047376,129.775 698.58998,131.625 C700.132584,133.475 702.396728,134.8 705.382413,135.6 L705.382413,135.6 L705.233129,136.2 C701.05317,137.1 697.719155,138.925 695.231084,141.675 C692.743013,144.425 690.90184,148.8 689.707566,154.8 C688.911384,159.2 688.239605,163.25 687.692229,166.95 C687.144853,170.65 686.473074,174.4 685.676892,178.2 C684.880709,182.1 683.487389,184.775 681.496933,186.225 C679.506476,187.675 676.918882,188.4 673.734151,188.4 L673.734151,188.4 L662.687117,188.4 L660,201 L679.108384,201 Z" id="}" fill="#000000" fill-rule="nonzero"></path>
    </g>
</svg>